Shrek.Triology.720p.[Dual Audio] SDR-Release by ngupta93

Shrek(2001)

Format                           : Matroska
File size                        : 1.06 GiB
Duration                         : 1h 26mn
Overall bit rate                 : 1 753 Kbps
Movie name                       : shrek 1 [dual audio]by ngupta93
       
Video
ID                               : 1
Format                           : AVC
Format/Info                      : Advanced Video Codec
Format profile                   : High@L4.1
Format settings, CABAC           : Yes
Format settings, ReFrames        : 3 frames
Codec ID                         : V_MPEG4/ISO/AVC
Duration                         : 1h 26mn
Bit rate                         : 1 014 Kbps
Nominal bit rate                 : 1 050 Kbps
Width                            : 1 264 pixels
Height                           : 704 pixels
Display aspect ratio             : 16:9
Frame rate                       : 25.000 fps
Resolution                       : 8 bits
Colorimetry                      : 4:2:0
Scan type                        : Progressive
Bits/(Pixel*Frame)               : 0.046
Stream size                      : 626 MiB (58%)
Title                            : ngupta93
Writing library                  : x264 core 98 r1649 c54c47d
Language                         : English

      
Audio #1
ID                               : 2
Format                           : AC-3
Format/Info                      : Audio Coding 3
Codec ID                         : A_AC3
Duration                         : 1h 26mn
Bit rate mode                    : Constant
Bit rate                         : 448 Kbps
Channel(s)                       : 6 channels
Channel positions                : Front: L C R, Surround: L R, LFE
Sampling rate                    : 48.0 KHz
Video delay                      : 20ms
Stream size                      : 277 MiB (26%)
Title                            : ngupta93
Language                         : English
      
Audio #2
ID                               : 3
Format                           : AC-3
Format/Info                      : Audio Coding 3
Codec ID                         : A_AC3
Duration                         : 1h 26mn
Bit rate mode                    : Constant
Bit rate                         : 256 Kbps
Channel(s)                       : 2 channels
Channel positions                : L R
Sampling rate                    : 48.0 KHz
Stream size                      : 158 MiB (15%)
Title                            : ngupta93
Language                         : Hindi
Sample                          


Shrek 2 (2004)


Format                           : Matroska
File size                        : 912 MiB
Duration                         : 1h 28mn
Overall bit rate                 : 1 441 Kbps
Movie name                       : by ngupta93

       
Video
ID                               : 3
Format                           : AVC
Format/Info                      : Advanced Video Codec
Format profile                   : High@L4.1
Format settings, CABAC           : Yes
Format settings, ReFrames        : 3 frames
Muxing mode                      : Container profile=Unknown@4.1
Codec ID                         : V_MPEG4/ISO/AVC
Duration                         : 1h 28mn
Nominal bit rate                 : 1 000 Kbps
Width                            : 1 264 pixels
Height                           : 704 pixels
Display aspect ratio             : 16:9
Frame rate                       : 25.000 fps
Resolution                       : 8 bits
Colorimetry                      : 4:2:0
Scan type                        : Progressive
Bits/(Pixel*Frame)               : 0.045
Title                            : ngupta93
Language                         : English
      
Audio #1
ID                               : 1
Format                           : AAC
Format/Info                      : Advanced Audio Codec
Format version                   : Version 4
Format profile                   : LC
Format settings, SBR             : No
Codec ID                         : A_AAC
Duration                         : 1h 28mn
Channel(s)                       : 6 channels
Channel positions                : Front: L C R, Rear: L R, LFE
Sampling rate                    : 48.0 KHz
Title                            : ngupta93
Language                         : English
      
Audio #2
ID                               : 2
Format                           : AC-3
Format/Info                      : Audio Coding 3
Codec ID                         : A_AC3
Duration                         : 1h 28mn
Bit rate mode                    : Constant
Bit rate                         : 256 Kbps
Channel(s)                       : 2 channels
Channel positions                : L R
Sampling rate                    : 48.0 KHz
Video delay                      : 24ms
Stream size                      : 162 MiB (18%)
Title                            : ngupta93
Language                         : Hindi
Sample                          


Shrek the Third (2007)


Format                           : Matroska
File size                        : 1.01 GiB
Duration                         : 1h 28mn
Overall bit rate                 : 1 623 Kbps
Movie name                       : by ngupta93
       
Video
ID                               : 1
Format                           : AVC
Format/Info                      : Advanced Video Codec
Format profile                   : High@L4.1
Format settings, CABAC           : Yes
Format settings, ReFrames        : 3 frames
Muxing mode                      : Container profile=Unknown@4.1
Codec ID                         : V_MPEG4/ISO/AVC
Duration                         : 1h 28mn
Nominal bit rate                 : 1 000 Kbps
Width                            : 1 264 pixels
Height                           : 704 pixels
Display aspect ratio             : 16:9
Frame rate                       : 25.000 fps
Resolution                       : 8 bits
Colorimetry                      : 4:2:0
Scan type                        : Progressive
Bits/(Pixel*Frame)               : 0.045
Title                            : ngupta93
Language                         : English
      
Audio #1
ID                               : 2
Format                           : AAC
Format/Info                      : Advanced Audio Codec
Format version                   : Version 4
Format profile                   : LC
Format settings, SBR             : No
Codec ID                         : A_AAC
Duration                         : 1h 28mn
Channel(s)                       : 6 channels
Channel positions                : Front: L C R, Rear: L R, LFE
Sampling rate                    : 48.0 KHz
Video delay                      : 2s 300ms
Title                            : ngupta93
Language                         : English
      
Audio #2
ID                               : 3
Format                           : AC-3
Format/Info                      : Audio Coding 3
Codec ID                         : A_AC3
Duration                         : 1h 28mn
Bit rate mode                    : Constant
Bit rate                         : 256 Kbps
Channel(s)                       : 2 channels
Channel positions                : L R
Sampling rate                    : 48.0 KHz
Stream size                      : 163 MiB (16%)
Title                            : ngupta93
Language                         : Hindi
Sample                          
